<svg width="65" height="25" viewBox="0 0 65 25" fill="none" xmlns="http://www.w3.org/2000/svg">
    <rect x="0.25" y="0.25" width="64.5" height="24.5" rx="1.75" fill="white"/>
    <path d="M16.8283 17V8.27273H17.8851V12.1591H22.5385V8.27273H23.5953V17H22.5385V13.0966H17.8851V17H16.8283ZM28.2338 17.1364C27.6429 17.1364 27.1245 16.9957 26.6784 16.7145C26.2353 16.4332 25.8887 16.0398 25.6387 15.5341C25.3915 15.0284 25.2679 14.4375 25.2679 13.7614C25.2679 13.0795 25.3915 12.4844 25.6387 11.9759C25.8887 11.4673 26.2353 11.0724 26.6784 10.7912C27.1245 10.5099 27.6429 10.3693 28.2338 10.3693C28.8248 10.3693 29.3418 10.5099 29.785 10.7912C30.231 11.0724 30.5776 11.4673 30.8248 11.9759C31.0748 12.4844 31.1998 13.0795 31.1998 13.7614C31.1998 14.4375 31.0748 15.0284 30.8248 15.5341C30.5776 16.0398 30.231 16.4332 29.785 16.7145C29.3418 16.9957 28.8248 17.1364 28.2338 17.1364ZM28.2338 16.233C28.6827 16.233 29.052 16.1179 29.3418 15.8878C29.6316 15.6577 29.8461 15.3551 29.9853 14.9801C30.1245 14.6051 30.1941 14.1989 30.1941 13.7614C30.1941 13.3239 30.1245 12.9162 29.9853 12.5384C29.8461 12.1605 29.6316 11.8551 29.3418 11.6222C29.052 11.3892 28.6827 11.2727 28.2338 11.2727C27.785 11.2727 27.4157 11.3892 27.1259 11.6222C26.8361 11.8551 26.6216 12.1605 26.4824 12.5384C26.3432 12.9162 26.2736 13.3239 26.2736 13.7614C26.2736 14.1989 26.3432 14.6051 26.4824 14.9801C26.6216 15.3551 26.8361 15.6577 27.1259 15.8878C27.4157 16.1179 27.785 16.233 28.2338 16.233ZM32.7349 17V10.4545H33.7065V11.4773H33.7917C33.9281 11.1278 34.1483 10.8565 34.4522 10.6634C34.7562 10.4673 35.1213 10.3693 35.5474 10.3693C35.9792 10.3693 36.3386 10.4673 36.6255 10.6634C36.9153 10.8565 37.1412 11.1278 37.3031 11.4773H37.3713C37.5389 11.1392 37.7903 10.8707 38.1255 10.6719C38.4608 10.4702 38.8627 10.3693 39.3315 10.3693C39.9167 10.3693 40.3954 10.5526 40.7676 10.919C41.1397 11.2827 41.3258 11.8494 41.3258 12.6193V17H40.3201V12.6193C40.3201 12.1364 40.188 11.7912 39.9238 11.5838C39.6596 11.3764 39.3485 11.2727 38.9906 11.2727C38.5304 11.2727 38.1738 11.4119 37.921 11.6903C37.6681 11.9659 37.5417 12.3153 37.5417 12.7386V17H36.519V12.517C36.519 12.1449 36.3983 11.8452 36.1568 11.6179C35.9153 11.3878 35.6042 11.2727 35.2235 11.2727C34.9622 11.2727 34.7179 11.3423 34.4906 11.4815C34.2662 11.6207 34.0843 11.8139 33.9451 12.0611C33.8088 12.3054 33.7406 12.5881 33.7406 12.9091V17H32.7349ZM45.9089 17.1364C45.2782 17.1364 44.7342 16.9972 44.2768 16.7188C43.8223 16.4375 43.4714 16.0455 43.2243 15.5426C42.9799 15.0369 42.8578 14.4489 42.8578 13.7784C42.8578 13.108 42.9799 12.517 43.2243 12.0057C43.4714 11.4915 43.8152 11.0909 44.2555 10.804C44.6987 10.5142 45.2157 10.3693 45.8066 10.3693C46.1475 10.3693 46.4842 10.4261 46.8166 10.5398C47.149 10.6534 47.4515 10.8381 47.7243 11.0938C47.997 11.3466 48.2143 11.6818 48.3762 12.0994C48.5382 12.517 48.6191 13.0312 48.6191 13.642V14.0682H43.5737V13.1989H47.5964C47.5964 12.8295 47.5225 12.5 47.3748 12.2102C47.2299 11.9205 47.0225 11.6918 46.7527 11.5241C46.4856 11.3565 46.1703 11.2727 45.8066 11.2727C45.4061 11.2727 45.0595 11.3722 44.7669 11.571C44.4771 11.767 44.2541 12.0227 44.0978 12.3381C43.9416 12.6534 43.8635 12.9915 43.8635 13.3523V13.9318C43.8635 14.4261 43.9487 14.8452 44.1191 15.1889C44.2924 15.5298 44.5325 15.7898 44.8393 15.9688C45.1461 16.1449 45.5027 16.233 45.9089 16.233C46.1731 16.233 46.4118 16.196 46.6248 16.1222C46.8407 16.0455 47.0268 15.9318 47.1831 15.7812C47.3393 15.6278 47.46 15.4375 47.5453 15.2102L48.5169 15.483C48.4146 15.8125 48.2427 16.1023 48.0012 16.3523C47.7598 16.5994 47.4615 16.7926 47.1064 16.9318C46.7512 17.0682 46.3521 17.1364 45.9089 17.1364Z" fill="black"/>
    <rect x="0.25" y="0.25" width="64.5" height="24.5" rx="1.75" stroke="#C6C3C3" stroke-width="0.5"/>
</svg>
