<svg width="80" height="80" viewBox="0 0 80 80" fill="none" xmlns="http://www.w3.org/2000/svg">
    <rect width="80" height="80" rx="40" fill="url(#paint0_angular_50_5)"/>
    <rect x="20" y="20" width="40" height="40" rx="10" fill="#373737" fill-opacity="0.38"/>
    <path d="M33.3194 35.988H31.0274L29.0114 28.764H27.9914L28.7354 29.472V35.988H27.5474V27.696H29.8514L31.8434 34.944H32.8754L32.1314 34.188V27.696H33.3194V35.988ZM39.7119 36H36.4599L35.4279 34.956V30.816L36.4599 29.772H38.6799L39.7119 30.816V32.892L38.6799 33.924H36.7599L37.8159 32.892H38.5359V30.816H36.6159V34.956H39.7119V36ZM48.1996 34.488L46.6996 36H45.6796L44.6476 34.968L43.6036 36H42.6076L41.0956 34.488V29.484L42.2716 30.672V34.296L43.1596 35.172L44.0596 34.224V30.672L45.2476 29.484V34.224L46.1236 35.172L47.0236 34.296V30.672L48.1996 29.484V34.488ZM53.5014 30.816H50.5374V31.848H52.1694L53.2134 32.892V34.956L52.1694 36H49.3494V34.956H52.0254V32.892H50.3934L49.3494 31.848V30.816L50.3934 29.772H52.4454L53.5014 30.816ZM30.1069 43.752H28.2469V51H27.0589V43.752H25.2109V42.708H30.1069V43.752ZM35.3174 49.956L34.2854 51H32.0654L31.0334 49.956V45.816L32.0654 44.772H34.2854L35.3174 45.816V49.956ZM34.1414 49.956V45.816H32.2214V49.956H34.1414ZM41.4463 51H40.2703V50.112L39.4063 51H38.1943L37.1623 49.956V45.816L38.1943 44.772H40.2703V42.696L41.4463 41.52V51ZM40.2703 49.956V44.916L39.3583 45.816H38.3503V49.956H40.2703ZM47.5361 51H46.3481V50.112L45.4601 51H44.2721L43.2401 49.956V47.892L44.2721 46.848H46.2281L45.2441 47.88H44.4161V49.956H46.3481V45.816H43.0841L43.9721 44.772H46.5041L47.5361 45.816V51ZM53.7521 53.076L52.7201 54.108H49.3121L50.3441 53.076H52.5761V50.112L51.7001 51H50.5001L49.4561 49.956V44.772H50.6441V49.956H52.5761V44.772H53.7521V53.076Z" fill="#ADFF00"/>
    <defs>
        <radialGradient id="paint0_angular_50_5" cx="0" cy="0" r="1" gradientUnits="userSpaceOnUse" gradientTransform="translate(40 40) rotate(90) scale(40)">
            <stop offset="0.598958" stop-color="#49354D"/>
            <stop offset="0.864583" stop-color="#B8EEFF"/>
        </radialGradient>
    </defs>
</svg>
